HIERARCHY
ROOT root
{
	OFFSET	0	13.1	24.9
	CHANNELS 6  Xposition Yposition Zposition Xrotation Yrotation Zrotation
	JOINT spine_1
	{
		OFFSET	0	9.99999	0
		CHANNELS 3  Xrotation Yrotation Zrotation
		JOINT spine_2
		{
			OFFSET	0	112	-10
			CHANNELS 3  Xrotation Yrotation Zrotation
			JOINT spine_3
			{
				OFFSET	0	206.5	19.3
				CHANNELS 3  Xrotation Yrotation Zrotation
				JOINT spine_4
				{
					OFFSET	0	110.4	14.6
					CHANNELS 3  Xrotation Yrotation Zrotation
					JOINT neck_1
					{
						OFFSET	0	71.8	-50.3
						CHANNELS 3  Xrotation Yrotation Zrotation
						JOINT neck_2
						{
							OFFSET	0	86.2	-25.8
							CHANNELS 3  Xrotation Yrotation Zrotation
							JOINT head_ee
							{
								OFFSET	0	179.8	-8.7
								CHANNELS 3  Xrotation Yrotation Zrotation
								End Site
								{
									OFFSET	1	0	0
								}
							}
						}
					}
					JOINT left_clavicle
					{
						OFFSET	-43.2	22.4	-70.8
						CHANNELS 3  Xrotation Yrotation Zrotation
						JOINT left_shoulder
						{
							OFFSET	-93.9	-5.79999	48.7
							CHANNELS 3  Xrotation Yrotation Zrotation
							JOINT left_elbow
							{
								OFFSET	-291.4	-30.8	15.2
								CHANNELS 3  Xrotation Yrotation Zrotation
								JOINT left_lowarm_twist
								{
									OFFSET	-110.7	-3.89999	13.6
									CHANNELS 3  Xrotation Yrotation Zrotation
									JOINT left_hand
									{
										OFFSET	-110.7	-3.89999	13.6
										CHANNELS 3  Xrotation Yrotation Zrotation
										JOINT left_ee
										{
											OFFSET	-80.8	-5.10001	12.1
											CHANNELS 3  Xrotation Yrotation Zrotation
											End Site
											{
												OFFSET	1	0	0
											}
										}
									}
								}
							}
						}
					}
					JOINT right_clavicle
					{
						OFFSET	43.2	22.4	-70.8
						CHANNELS 3  Xrotation Yrotation Zrotation
						JOINT right_shoulder
						{
							OFFSET	93.9	-5.79999	48.7
							CHANNELS 3  Xrotation Yrotation Zrotation
							JOINT right_elbow
							{
								OFFSET	291.4	-30.8	15.2
								CHANNELS 3  Xrotation Yrotation Zrotation
								JOINT right_lowarm_twist
								{
									OFFSET	110.7	-3.89999	13.6
									CHANNELS 3  Xrotation Yrotation Zrotation
									JOINT right_hand
									{
										OFFSET	110.7	-3.89999	13.6
										CHANNELS 3  Xrotation Yrotation Zrotation
										JOINT right_ee
										{
											OFFSET	80.8	-5.10001	12.1
											CHANNELS 3  Xrotation Yrotation Zrotation
											End Site
											{
												OFFSET	1	0	0
											}
										}
									}
								}
							}
						}
					}
				}
			}
		}
	}
	JOINT left_hip
	{
		OFFSET	-82.8	-127.5	0.300001
		CHANNELS 3  Xrotation Yrotation Zrotation
		JOINT left_knee
		{
			OFFSET	-28.2	-396.7	2.2
			CHANNELS 3  Xrotation Yrotation Zrotation
			JOINT left_ankle
			{
				OFFSET	-11.7	-411.3	35.4
				CHANNELS 3  Xrotation Yrotation Zrotation
				JOINT left_toes
				{
					OFFSET	0	-60	-88.6
					CHANNELS 3  Xrotation Yrotation Zrotation
					JOINT left_foot_ee
					{
						OFFSET	-22.5	-16.5	-42.2
						CHANNELS 3  Xrotation Yrotation Zrotation
						End Site
						{
							OFFSET	1	0	0
						}
					}
				}
			}
		}
	}
	JOINT right_hip
	{
		OFFSET	82.8	-127.5	0.300001
		CHANNELS 3  Xrotation Yrotation Zrotation
		JOINT right_knee
		{
			OFFSET	28.2	-396.7	2.2
			CHANNELS 3  Xrotation Yrotation Zrotation
			JOINT right_ankle
			{
				OFFSET	11.7	-411.3	35.4
				CHANNELS 3  Xrotation Yrotation Zrotation
				JOINT right_toes
				{
					OFFSET	0	-60	-88.6
					CHANNELS 3  Xrotation Yrotation Zrotation
					JOINT right_foot_ee
					{
						OFFSET	22.5	-16.5	-42.2
						CHANNELS 3  Xrotation Yrotation Zrotation
						End Site
						{
							OFFSET	1	0	0
						}
					}
				}
			}
		}
	}
}
MOTION
Frames: 14
Frame Time: 0.02
3177.02 653.055 -1669.29 2.60621699708 62.6311081065 -9.28404708334 -0.955254 1.50769 4.69817 -0.943785 1.20603 4.78432 -0.831579 0.103738 4.93256 -0.864437 0.880513 4.85463 -12.093 6.5874 -10.2282 -11.9768 19.0516 -8.00374 -0.0 0.0 -0.0 -2.5347 23.5923 -0.732068 -18.1981 -4.33601 68.7089 0.421208 -11.7861 0.0434762 -53.7729 -4.52006 4.86553 0.544073 19.2016 11.0756 -0.0 0.0 -0.0 13.8908 27.7021 -27.5271 2.16594 25.2168 -48.3209 2.62548 52.4349 -1.29306 3.82895 -0.119083 0.474485 -3.21709 -0.237367 21.9174 0.0 0.0 0.0 24.9816 31.9755 -0.904204 6.81207 -0.339823 -0.989113 -7.89695 1.96152 1.18178 -8.05258 0.0 0.0 -0.0 0.0 -0.0 -19.1991 17.938 13.7005 -18.3957 -0.311282 -2.7937 32.4885 1.87391 4.18605 12.6293 -0.0 -0.0 0.0 0.0 0.0 
3113.81338948 651.416 -1670.26119439 1.44625651666 58.4915726927 -7.35172373495 -0.586829 1.49302 4.6718 -0.57548 1.19306 4.75707 -0.466412 0.128484 4.90239 -0.498807 0.900202 4.82093 -11.0795 7.65433 -8.38661 -11.0355 19.9723 -6.08899 -0.0 0.0 -0.0 -2.05298 22.7635 -0.213891 -16.6609 -4.80537 68.1766 0.434896 -12.1579 0.0463156 -53.0103 -4.4285 4.83101 0.745254 16.2118 11.2545 -0.0 0.0 -0.0 13.9623 27.8763 -27.6695 -0.189359 23.6656 -49.46 2.30951 48.8372 -1.04866 3.02464 -0.096706 0.37418 -3.22593 -0.906972 21.6359 0.0 0.0 0.0 26.468 31.8764 -0.802812 -1.71086 0.0666536 0.254086 -12.0631 8.90238 1.80302 -7.26373 0.0 0.0 -0.0 0.0 -0.0 -22.0015 16.9963 14.3706 -16.2205 -0.321494 -2.46015 30.9725 2.28879 4.03332 10.369 -0.0 -0.0 0.0 0.0 0.0 
3082.58444302 649.071 -1669.99062703 0.712396934145 57.9760733661 -7.06789527549 -0.380136 1.46105 4.60443 -0.369099 1.16543 4.68782 -0.264769 0.133547 4.82836 -0.296176 0.893552 4.74702 -10.7772 8.00659 -7.6428 -10.7581 20.1679 -5.3212 -0.0 0.0 -0.0 -1.97386 22.6201 -0.127818 -16.2411 -4.96888 68.0585 0.439881 -12.293 0.0473712 -52.8216 -4.40593 4.82228 0.799149 15.2591 11.2513 -0.0 0.0 -0.0 14.0133 27.8044 -27.7983 -0.994283 23.2543 -49.8967 2.21752 47.6809 -0.980014 2.78958 -0.0899003 0.344927 -3.22114 -1.07055 21.5169 0.0 0.0 0.0 27.2417 31.8474 -1.59542 -3.97426 0.143109 0.593017 -13.6044 11.2924 2.03873 -7.04222 0.0 0.0 -0.0 0.0 -0.0 -23.2307 16.5292 15.0039 -15.6908 -0.322063 -2.37888 29.8497 2.35086 3.91476 9.52325 -0.0 -0.0 0.0 0.0 0.0 
3082.58185999 649.071 -1669.23511296 0.721650345422 58.4344129669 -7.07878231144 -0.380136 1.46105 4.60443 -0.369099 1.16543 4.68782 -0.264769 0.133547 4.82836 -0.296176 0.893552 4.74702 -10.7772 8.00659 -7.6428 -10.7581 20.1679 -5.3212 -0.0 0.0 -0.0 -1.97386 22.6201 -0.127818 -16.2411 -4.96888 68.0585 0.439881 -12.293 0.0473712 -52.8216 -4.40593 4.82228 0.799149 15.2591 11.2513 -0.0 0.0 -0.0 14.0133 27.8044 -27.7983 -0.994283 23.2543 -49.8967 2.21752 47.6809 -0.980014 2.78958 -0.0899003 0.344927 -3.22114 -1.07055 21.5169 0.0 0.0 0.0 27.2417 31.8474 -1.59542 -3.97426 0.143109 0.593017 -13.6044 11.2924 2.03873 -7.04222 0.0 0.0 -0.0 0.0 -0.0 -23.2307 16.5292 15.0039 -15.6908 -0.322063 -2.37888 29.8497 2.35086 3.91476 9.52325 -0.0 -0.0 0.0 0.0 0.0 
3006.38274622 645.128 -1669.12906285 1.16248700513 57.8824910053 -6.73792482826 -0.0139416 0.803875 4.19095 -0.00433228 0.53581 4.2335 0.0407139 -0.363083 4.25177 0.0156309 0.312336 4.25579 -8.45186 9.04708 -6.31733 -8.37886 21.3214 -4.21099 -0.0 0.0 -0.0 -1.2129 22.2826 0.884178 -14.1047 -5.69674 67.7274 0.488665 -13.608 0.0583048 -52.2024 -4.33203 4.7931 1.20486 12.1105 12.7208 -0.0 0.0 -0.0 13.4646 27.424 -26.5748 -5.22267 22.546 -52.7023 2.16599 47.0099 -0.942111 0.640222 -0.0221176 0.0787746 -3.12937 0.0637072 21.4395 0.0 0.0 0.0 27.5838 31.5185 -1.91295 -16.7393 0.320208 2.53973 -13.569 14.8555 2.043 -5.46497 0.0 0.0 -0.0 0.0 -0.0 -24.4768 16.5591 17.476 -15.2104 -0.32193 -2.30516 26.9184 0.22232 3.57401 7.02045 -0.0 -0.0 0.0 0.0 0.0 
2979.90942199 653.277 -1663.5313801 0.146004812376 59.0284003202 -5.44369753857 -0.00201607 0.457333 4.01761 0.00693898 0.200968 4.03852 0.0254984 -0.651433 3.99078 0.00328001 -0.0135255 4.04349 -7.51618 9.67848 -5.06303 -7.43957 21.624 -3.00485 -0.0 0.0 -0.0 -0.866986 21.4663 1.25893 -12.5835 -6.37586 67.5461 0.519521 -14.4324 0.0657803 -51.974 -4.30484 4.78214 1.33227 11.1543 13.2088 -0.0 0.0 -0.0 13.073 27.3893 -25.6747 -6.79054 21.8486 -53.4451 2.13247 46.5643 -0.917686 0.0544609 -0.00191559 0.00669153 -3.00466 0.178193 20.603 0.0 0.0 0.0 27.0342 30.7997 -1.38829 -20.2852 0.292139 3.08298 -13.3106 15.3816 2.00565 -4.47782 0.0 0.0 -0.0 0.0 -0.0 -22.6405 17.414 18.2806 -16.9634 -0.31943 -2.5741 25.4896 -1.31087 3.40169 6.22284 -0.0 -0.0 0.0 0.0 0.0 
2979.97755655 653.277 -1661.54292682 0.148508893827 59.6064937599 -5.44660919808 -0.00201607 0.457333 4.01761 0.00693898 0.200968 4.03852 0.0254984 -0.651433 3.99078 0.00328001 -0.0135255 4.04349 -7.51618 9.67848 -5.06303 -7.43957 21.624 -3.00485 -0.0 0.0 -0.0 -0.866986 21.4663 1.25893 -12.5835 -6.37586 67.5461 0.519521 -14.4324 0.0657803 -51.974 -4.30484 4.78214 1.33227 11.1543 13.2088 -0.0 0.0 -0.0 13.073 27.3893 -25.6747 -6.79054 21.8486 -53.4451 2.13247 46.5643 -0.917686 0.0544609 -0.00191559 0.00669153 -3.00466 0.178193 20.603 0.0 0.0 0.0 27.0342 30.7997 -1.38829 -20.2852 0.292139 3.08298 -13.3106 15.3816 2.00565 -4.47782 0.0 0.0 -0.0 0.0 -0.0 -22.6405 17.414 18.2806 -16.9634 -0.31943 -2.5741 25.4896 -1.31087 3.40169 6.22284 -0.0 -0.0 0.0 0.0 0.0 
2980.00113543 653.277 -1660.96481725 0.149256168111 59.7746051779 -5.44747478689 -0.00201607 0.457333 4.01761 0.00693898 0.200968 4.03852 0.0254984 -0.651433 3.99078 0.00328001 -0.0135255 4.04349 -7.51618 9.67848 -5.06303 -7.43957 21.624 -3.00485 -0.0 0.0 -0.0 -0.866986 21.4663 1.25893 -12.5835 -6.37586 67.5461 0.519521 -14.4324 0.0657803 -51.974 -4.30484 4.78214 1.33227 11.1543 13.2088 -0.0 0.0 -0.0 13.073 27.3893 -25.6747 -6.79054 21.8486 -53.4451 2.13247 46.5643 -0.917686 0.0544609 -0.00191559 0.00669153 -3.00466 0.178193 20.603 0.0 0.0 0.0 27.0342 30.7997 -1.38829 -20.2852 0.292139 3.08298 -13.3106 15.3816 2.00565 -4.47782 0.0 0.0 -0.0 0.0 -0.0 -22.6405 17.414 18.2806 -16.9634 -0.31943 -2.5741 25.4896 -1.31087 3.40169 6.22284 -0.0 -0.0 0.0 0.0 0.0 
2980.04247373 653.277 -1660.03819975 0.150472666747 60.0441050728 -5.4488807606 -0.00201607 0.457333 4.01761 0.00693898 0.200968 4.03852 0.0254984 -0.651433 3.99078 0.00328001 -0.0135255 4.04349 -7.51618 9.67848 -5.06303 -7.43957 21.624 -3.00485 -0.0 0.0 -0.0 -0.866986 21.4663 1.25893 -12.5835 -6.37586 67.5461 0.519521 -14.4324 0.0657803 -51.974 -4.30484 4.78214 1.33227 11.1543 13.2088 -0.0 0.0 -0.0 13.073 27.3893 -25.6747 -6.79054 21.8486 -53.4451 2.13247 46.5643 -0.917686 0.0544609 -0.00191559 0.00669153 -3.00466 0.178193 20.603 0.0 0.0 0.0 27.0342 30.7997 -1.38829 -20.2852 0.292139 3.08298 -13.3106 15.3816 2.00565 -4.47782 0.0 0.0 -0.0 0.0 -0.0 -22.6405 17.414 18.2806 -16.9634 -0.31943 -2.5741 25.4896 -1.31087 3.40169 6.22284 -0.0 -0.0 0.0 0.0 0.0 
2962.19238199 665.383 -1653.25230481 -1.02707223547 61.8801645865 -4.47375798433 -0.0104501 0.297097 3.90084 -0.00198775 0.0484681 3.91182 0.00519714 -0.775559 3.83459 -0.0152818 -0.160708 3.90882 -7.77895 9.64271 -4.38636 -7.73829 21.0825 -2.28165 -0.0 0.0 -0.0 -0.582959 20.0539 1.48356 -10.7298 -7.29817 67.5512 0.596698 -16.4671 0.0863432 -52.3955 -4.35503 4.80229 1.63799 10.5034 14.9935 -0.0 0.0 -0.0 12.017 27.1756 -23.2819 -9.43337 21.0908 -54.2886 2.07282 45.7524 -0.874657 0.247639 -0.00865965 0.0304412 -2.72801 1.72016 19.3924 0.0 0.0 0.0 26.8514 27.4316 0.340739 -22.4498 0.2585 3.4134 -11.2174 16.9877 1.69261 -3.45336 0.0 0.0 -0.0 0.0 -0.0 -20.3797 18.6779 17.703 -22.9682 -0.248593 -3.49233 25.1079 -3.86705 3.34711 7.19085 -0.0 -0.0 0.0 0.0 0.0 
2947.39095231 670.22 -1651.93712261 -0.789339203577 64.4474540488 -4.3552714969 -0.121044 0.382428 3.65979 -0.113606 0.148932 3.67668 -0.100229 -0.634232 3.6247 -0.118556 -0.0542237 3.67929 -8.89424 10.1186 -3.93611 -8.93149 21.6785 -1.50156 -0.0 0.0 -0.0 -0.347676 18.7272 1.6668 -8.27982 -9.64408 67.2742 0.721139 -19.6583 0.124942 -52.7112 -4.39272 4.81713 1.77383 9.32507 15.48 -0.0 0.0 -0.0 11.4738 27.2605 -22.0384 -11.2359 20.658 -55.2214 1.88059 42.9672 -0.740219 0.431547 -0.0150051 0.0530721 -2.48864 2.68138 18.1567 0.0 0.0 0.0 26.0194 23.4845 1.84841 -21.8586 0.268927 3.32328 -9.19723 18.115 1.38844 -2.80361 0.0 0.0 -0.0 0.0 -0.0 -18.0435 20.0284 16.5544 -29.5431 -0.0612956 -4.48344 22.449 -7.33508 3.02972 8.21318 -0.0 -0.0 0.0 0.0 0.0 
2908.41601373 683.022 -1642.91534159 1.14425658797 68.6974360011 -5.29570569373 -0.140601 0.614794 3.15832 -0.135147 0.412681 3.19099 -0.108839 -0.273363 3.20592 -0.123102 0.236114 3.20887 -10.1075 10.5843 -2.00991 -10.2465 21.2865 0.74643 -0.0 0.0 -0.0 -0.122972 16.8931 1.79062 -4.9609 -13.0011 66.5672 0.968215 -25.6231 0.220183 -52.3183 -4.34583 4.79862 1.58236 6.72078 13.2419 -0.0 0.0 -0.0 10.446 26.9661 -19.7565 -15.964 20.4414 -57.2612 1.74812 40.8878 -0.651687 -1.21869 0.0445305 -0.149256 -1.70711 5.91673 14.1664 0.0 0.0 0.0 20.5764 15.1467 4.54982 -20.1907 0.293323 3.06853 -3.80029 18.6073 0.569518 -1.12451 0.0 0.0 -0.0 0.0 -0.0 -6.44086 22.7636 15.3636 -47.0679 0.976502 -6.95783 13.8998 -15.7492 1.96736 6.73214 -0.0 -0.0 0.0 0.0 0.0 
2894.10291077 687.683 -1626.91960482 4.05921410718 72.8059258972 -8.10331566698 -0.194824 0.529335 3.01095 -0.189843 0.336758 3.0385 -0.168968 -0.318489 3.04047 -0.181829 0.165462 3.05261 -11.0707 10.4316 -1.28732 -11.2548 20.5658 1.58867 -0.0 0.0 -0.0 0.322072 15.1511 2.29669 -3.40933 -15.0631 66.0306 1.08555 -28.2683 0.273367 -50.3795 -4.11632 4.7026 1.21815 5.83577 10.4702 -0.0 0.0 -0.0 9.97387 27.0131 -18.6944 -19.3086 20.4732 -57.8537 1.68375 39.8275 -0.610002 -2.71021 0.103341 -0.330607 -1.05294 8.83973 10.9281 0.0 0.0 0.0 18.0635 9.83318 6.34222 -18.7903 0.308072 2.85417 -1.14545 20.7644 0.172025 -0.582102 0.0 0.0 -0.0 0.0 -0.0 1.30241 26.009 11.657 -58.5636 2.0469 -8.3653 9.73359 -22.1813 1.42888 5.19487 -0.0 -0.0 0.0 0.0 0.0 
2884.10156253 691.098 -1617.34655806 5.38312392317 74.912945717 -9.33755620402 -0.181478 0.613449 2.87203 -0.176991 0.42953 2.90521 -0.152334 -0.198442 2.93006 -0.164214 0.266593 2.92465 -13.1043 10.034 -0.58322 -13.361 19.4588 2.51469 -0.0 0.0 -0.0 0.631966 13.905 2.66813 -2.29064 -16.5266 65.4868 1.17185 -30.1341 0.315476 -48.2743 -3.87093 4.58961 0.683434 6.27581 7.10041 -0.0 0.0 -0.0 10.0116 27.5982 -18.712 -20.8601 20.7556 -58.0556 1.61796 38.7088 -0.568358 -4.0544 0.160378 -0.492702 -0.657446 10.8961 9.10245 0.0 0.0 0.0 17.3918 6.01188 7.0115 -17.8527 0.315017 2.71049 -1.20251 25.777 0.184846 1.2434 -0.0 -0.0 -0.0 0.0 -0.0 6.78726 24.9175 8.93441 -65.2717 2.79531 -9.07954 6.20467 -24.0462 0.928504 2.45119 -0.0 -0.0 0.0 0.0 0.0 
